<?xml version="1.0" encoding="utf-8"?>
<!-- Generator: Adobe Illustrator 25.2.1, SVG Export Plug-In . SVG Version: 6.00 Build 0)  -->
<svg version="1.1" id="Layer_1" xmlns="http://www.w3.org/2000/svg" xmlns:xlink="http://www.w3.org/1999/xlink" x="0px" y="0px"
	 viewBox="0 0 24 24" style="enable-background:new 0 0 24 24;" xml:space="preserve">
<style type="text/css">
	.st0{fill:#FFFFFF;}
</style>
<path class="st0" d="M11.6,4c0.2-0.4,0.7-0.4,0.9,0l9.4,17c0.2,0.4,0,0.8-0.4,0.8l-18.7,0c-0.4,0-0.6-0.5-0.4-0.8
	C2.3,21,11.6,4,11.6,4z M12,1.2c-0.8,0-1.5,0.4-2,1.2L0.3,20.2c-0.9,1.7,0.2,3.8,2,3.8h19.4c1.8,0,2.9-2.1,2-3.8L14,2.4
	C13.5,1.6,12.8,1.2,12,1.2z"/>
</svg>
