<?xml version="1.0" encoding="utf-8"?>
<!-- Generator: Adobe Illustrator 25.2.1, SVG Export Plug-In . SVG Version: 6.00 Build 0)  -->
<svg version="1.1" id="Layer_1" xmlns="http://www.w3.org/2000/svg" xmlns:xlink="http://www.w3.org/1999/xlink" x="0px" y="0px"
	 viewBox="0 0 24 24" style="enable-background:new 0 0 24 24;" xml:space="preserve">
<style type="text/css">
	.st0{fill:#FFFFFF;}
</style>
<path class="st0" d="M18,5l-2-3H8L6,5H0v17h24V5H18z M22,12h-4.1c0.6,3.8-2.3,7-5.9,7c-3.6,0-6.5-3.2-5.9-7H2V7h5.1l2-3h5.9l2,3H22
	V12z M12,9c-2.2,0-4,1.7-4,3.9c0,2.2,1.8,4.1,4,4.1s4-1.8,4-4.1C16,10.7,14.2,9,12,9z M11.6,12.6c-0.6,0.5-1.5,0.5-1.9,0
	c-0.4-0.5-0.2-1.3,0.4-1.8c0.6-0.5,1.5-0.5,1.9,0C12.4,11.2,12.2,12.1,11.6,12.6z"/>
</svg>