<?xml version="1.0" encoding="utf-8"?>
<!-- Generator: Adobe Illustrator 25.2.1, SVG Export Plug-In . SVG Version: 6.00 Build 0)  -->
<svg version="1.1" id="Layer_1" xmlns="http://www.w3.org/2000/svg" xmlns:xlink="http://www.w3.org/1999/xlink" x="0px" y="0px"
	 viewBox="0 0 60 60" style="enable-background:new 0 0 60 60;" xml:space="preserve">
<style type="text/css">
	.st0{fill:#707070;}
</style>
<path id="Path_10" class="st0" d="M30,9.2c11.5,0,20.8,9.3,20.8,20.8S41.5,50.8,30,50.8S9.2,41.5,9.2,30C9.2,18.5,18.5,9.2,30,9.2z
	 M30,5C16.2,5,5,16.2,5,30s11.2,25,25,25s25-11.2,25-25S43.8,5,30,5z M26.2,25.2l-8.7,1.2l6.3,6.1l-1.5,8.6l7.7-4.1l7.7,4.1
	l-1.5-8.6l6.3-6.1l-8.7-1.2L30,17.3L26.2,25.2z"/>
</svg>
