<?xml version="1.0" encoding="utf-8"?>
<!-- Generator: Adobe Illustrator 25.2.1, SVG Export Plug-In . SVG Version: 6.00 Build 0)  -->
<svg version="1.1" id="Layer_1" xmlns="http://www.w3.org/2000/svg" xmlns:xlink="http://www.w3.org/1999/xlink" x="0px" y="0px"
	 viewBox="0 0 60 60" style="enable-background:new 0 0 60 60;" xml:space="preserve">
<style type="text/css">
	.st0{fill:#707070;}
</style>
<path id="Path_9" class="st0" d="M30,9.2c11.5,0,20.8,9.3,20.8,20.8S41.5,50.8,30,50.8S9.2,41.5,9.2,30C9.2,18.5,18.5,9.2,30,9.2z
	 M30,5C16.2,5,5,16.2,5,30s11.2,25,25,25s25-11.2,25-25S43.8,5,30,5z M41.5,34c-3.2,2.7-7.3,4.1-11.5,4c-4.2,0.1-8.3-1.3-11.5-4
	l-1,1c2.3,3.6,6.7,7.4,12.5,7.4s10.2-3.8,12.5-7.4L41.5,34z M42.5,25.8l-1.6,1.1c-0.8-1.3-2.2-2-3.6-2c-1.5,0-2.8,0.7-3.6,2
	l-1.6-1.1c0.6-1.6,2.5-4.2,5.2-4.2S41.9,24.3,42.5,25.8z M27.9,25.8l-1.6,1.1c-0.8-1.3-2.2-2-3.6-2c-1.5,0-2.8,0.7-3.6,2l-1.6-1.1
	c0.6-1.6,2.5-4.2,5.2-4.2S27.3,24.3,27.9,25.8z"/>
</svg>
