<svg xmlns="http://www.w3.org/2000/svg" width="60" height="60" viewBox="0 0 60 60">
  <path id="Path_9" data-name="Path 9" d="M30,5A25,25,0,1,1,5,30,25.028,25.028,0,0,1,30,5Zm0-5A30,30,0,1,0,60,30,30,30,0,0,0,30,0ZM43.77,34.853A20.9,20.9,0,0,1,30,39.68,20.9,20.9,0,0,1,16.23,34.853L15,36.085C17.818,40.385,23,45,30,45s12.18-4.615,15-8.915ZM45,25,43.113,26.27a4.987,4.987,0,0,0-4.365-2.37,5.156,5.156,0,0,0-4.362,2.37L32.5,25c.7-1.87,3.013-5,6.248-5S44.292,23.135,45,25ZM27.5,25,25.612,26.27a4.987,4.987,0,0,0-4.365-2.37,5.156,5.156,0,0,0-4.362,2.37L15,25c.7-1.87,3.013-5,6.247-5S26.792,23.135,27.5,25Z" fill="#707070"/>
</svg>
