<?xml version="1.0" encoding="utf-8"?>
<!-- Generator: Adobe Illustrator 25.2.1, SVG Export Plug-In . SVG Version: 6.00 Build 0)  -->
<svg version="1.1" id="Layer_1" xmlns="http://www.w3.org/2000/svg" xmlns:xlink="http://www.w3.org/1999/xlink" x="0px" y="0px"
	 viewBox="0 0 58.8 60" style="enable-background:new 0 0 58.8 60;" xml:space="preserve">
<style type="text/css">
	.st0{fill:#707070;}
</style>
<path id="Path_11" class="st0" d="M13.3,32.1H5v-4.2h8.3C13.1,29.3,13.1,30.7,13.3,32.1z M19.4,16.9l-5.9-6l-2.9,2.9l5.9,6
	C17.4,18.7,18.4,17.7,19.4,16.9z M42.2,19.8l5.9-6l-2.9-2.9l-5.9,6C40.4,17.8,41.4,18.7,42.2,19.8L42.2,19.8z M29.4,13.4
	c0.7,0,1.4,0.1,2,0.1V5.1h-4.1v8.4C28,13.4,28.7,13.4,29.4,13.4z M29.4,46.6c-0.7,0-1.4-0.1-2-0.1v8.4h4.1v-8.4
	C30.7,46.6,30.1,46.6,29.4,46.6z M45.5,27.9c0.2,1.4,0.2,2.8,0,4.2h8.3v-4.2H45.5z M39.4,43.1l5.9,6l2.9-2.9l-5.9-6
	C41.4,41.3,40.4,42.2,39.4,43.1z M16.6,40.2l-5.9,6l2.9,2.9l5.9-6C18.3,42.2,17.4,41.3,16.6,40.2z M21.3,30c0.1,4.5,3.8,8.1,8.3,8
	c4.5-0.1,8.1-3.8,8-8.3c-0.1-4.4-3.7-8-8.1-8C24.9,21.7,21.2,25.5,21.3,30z M41.6,30c0.1,6.8-5.4,12.4-12.2,12.5
	c-6.8-0.1-12.3-5.6-12.2-12.5c-0.1-6.8,5.4-12.4,12.2-12.5C36.2,17.6,41.7,23.2,41.6,30z"/>
</svg>
