<svg xmlns="http://www.w3.org/2000/svg" width="235" height="49" viewBox="0 0 235 49"><g transform="translate(-505 -676)"><path d="M0,0H185.5A24.5,24.5,0,0,1,210,24.5v0A24.5,24.5,0,0,1,185.5,49H0a0,0,0,0,1,0,0V0A0,0,0,0,1,0,0Z" transform="translate(530 676)" fill="#1d1919" style="mix-blend-mode:multiply;isolation:isolate"/><g transform="translate(41 19)"><circle cx="24.5" cy="24.5" r="24.5" transform="translate(464 657)" fill="#deb40f"/><path d="M2.8,12.674a7.958,7.958,0,0,0,2.352,5.511,12.042,12.042,0,0,1-.465,4.449,13.956,13.956,0,0,0,4.2-1.922,20.955,20.955,0,0,0,3.651.688,8.432,8.432,0,0,0,.075,2.828,20.4,20.4,0,0,1-3.257-.523C7.4,24.9,3.092,26.116.062,26.661c1.132-2.228,2.387-5.29,2.322-7.425A10.3,10.3,0,0,1,0,12.674C0,5.928,6.6,1,13.977,1,21.3,1,27.923,5.87,27.952,12.626a13.587,13.587,0,0,0-2.825-.439c-.32-4.668-5.19-8.392-11.15-8.392C7.812,3.8,2.8,7.779,2.8,12.674ZM31.985,26.888a11.968,11.968,0,0,0,1.521,4.863,22.02,22.02,0,0,1-6.083-1.936,13.082,13.082,0,0,1-3.093.384c-5.4,0-9.083-3.694-9.083-7.608,0-4.436,4.348-7.641,9.15-7.641,4.832,0,9.15,3.227,9.15,7.641A6.738,6.738,0,0,1,31.985,26.888Zm-7.917-6.319h-3.1v3.107h1.243a2.054,2.054,0,0,1-1.24,1.816l.309.668a3.258,3.258,0,0,0,2.79-3.294Zm4.354,0h-3.1v3.107h1.237a2.056,2.056,0,0,1-1.241,1.816l.31.668a3.262,3.262,0,0,0,2.8-3.294ZM17.853,14.977V11.1H16.3a2.572,2.572,0,0,1,1.549-2.273l-.384-.834a4.073,4.073,0,0,0-3.487,4.121v2.868Zm-5.591,0V11.1H10.718a2.571,2.571,0,0,1,1.55-2.273l-.387-.834a4.079,4.079,0,0,0-3.494,4.121v2.868Z" transform="translate(471.303 665.129)" fill="#1d1919"/></g><text transform="translate(561 687)" fill="#fff" font-size="20" font-family="SegoeUI-Bold, Segoe UI" font-weight="700"><tspan x="0" y="22">Need </tspan><tspan y="22" text-decoration="underline">Inspiration</tspan><tspan y="22">?</tspan></text></g></svg>