<svg xmlns="http://www.w3.org/2000/svg" width="58.777" height="60" viewBox="0 0 58.777 60">
  <path id="Path_11" data-name="Path 11" d="M9.965,32.5H0v-5H9.965a18.578,18.578,0,0,0,0,5ZM17.4,14.22l-7.056-7.2L6.877,10.552l7.056,7.2A19.848,19.848,0,0,1,17.4,14.22Zm27.451,3.535,7.056-7.2L48.439,7.017l-7.056,7.2A20.1,20.1,0,0,1,44.847,17.755ZM29.388,10a19.312,19.312,0,0,1,2.449.172V0h-4.9V10.172A19.312,19.312,0,0,1,29.388,10Zm0,40a19.312,19.312,0,0,1-2.449-.173V60h4.9V49.827A19.312,19.312,0,0,1,29.388,50ZM48.812,27.5a18.577,18.577,0,0,1,0,5h9.965v-5ZM41.384,45.78l7.053,7.2L51.9,49.445l-7.053-7.2A20.115,20.115,0,0,1,41.384,45.78ZM13.93,42.242l-7.053,7.2,3.463,3.535,7.053-7.2A19.931,19.931,0,0,1,13.93,42.242ZM19.592,30a9.8,9.8,0,1,0,9.8-10A9.91,9.91,0,0,0,19.592,30Zm24.49,0A14.849,14.849,0,0,1,29.388,45,14.849,14.849,0,0,1,14.694,30,14.849,14.849,0,0,1,29.388,15,14.849,14.849,0,0,1,44.082,30Z" fill="#707070"/>
</svg>
