<svg xmlns="http://www.w3.org/2000/svg" width="111.273" height="102" viewBox="0 0 111.273 102">
  <path id="quote-15" d="M9.273,39.723c0,8.684,3.936,13.645,7.8,18.281.144,4.636.394,7.733-1.544,14.758,8.1-2.587,9.449-3.612,13.942-6.375a69.51,69.51,0,0,0,12.11,2.281,27.968,27.968,0,0,0,.25,9.379,67.658,67.658,0,0,1-10.8-1.734c-6.477,3.978-20.776,8-30.827,9.806,3.755-7.39,7.919-17.549,7.7-24.628A34.163,34.163,0,0,1,0,39.723C0,17.348,21.879,1,46.364,1,70.644,1,92.621,17.153,92.718,39.565a45.069,45.069,0,0,0-9.37-1.456C82.286,22.624,66.133,10.273,46.364,10.273,25.913,10.273,9.273,23.486,9.273,39.723ZM106.094,86.87c-.139,4.641,2.582,11.285,5.044,16.13-6.579-1.2-15.94-3.82-20.177-6.421A43.393,43.393,0,0,1,80.7,97.854c-17.92,0-30.127-12.254-30.127-25.236C50.573,57.9,65,47.271,80.923,47.271c16.028,0,30.35,10.705,30.35,25.347A22.351,22.351,0,0,1,106.094,86.87ZM79.834,65.909H69.545V76.216h4.122a6.814,6.814,0,0,1-4.112,6.023l1.025,2.216c5.411-1.071,9.254-5.054,9.254-10.928Zm14.442,0H83.988V76.216h4.1a6.819,6.819,0,0,1-4.117,6.023L85,84.455c5.411-1.071,9.273-5.054,9.273-10.928ZM59.22,47.364V34.488H54.069a8.53,8.53,0,0,1,5.137-7.539l-1.275-2.768C51.167,25.522,46.364,30.5,46.364,37.85v9.514Zm-18.545,0V34.488H35.552a8.527,8.527,0,0,1,5.142-7.539l-1.284-2.768C32.645,25.522,27.818,30.5,27.818,37.85v9.514Z" transform="translate(0 -1)" fill="#fff"/>
</svg>
