<?xml version="1.0" encoding="utf-8"?>
<!-- Generator: Adobe Illustrator 25.2.1, SVG Export Plug-In . SVG Version: 6.00 Build 0)  -->
<svg version="1.1" id="Layer_1" xmlns="http://www.w3.org/2000/svg" xmlns:xlink="http://www.w3.org/1999/xlink" x="0px" y="0px"
	 viewBox="0 0 60.3 60" style="enable-background:new 0 0 60.3 60;" xml:space="preserve">
<style type="text/css">
	.st0{fill:#707070;}
</style>
<path id="Path_8" class="st0" d="M50.3,17.5H30.2V20h20.1V17.5z M50.3,30H30.2v2.5h20.1V30z M50.3,42.5H30.2V45h20.1V42.5z
	 M23.9,14.2l-1.8-1.7L15.7,19l-3.9-3.6L10,17.2l5.7,5.3L23.9,14.2z M23.9,26.7L22.1,25l-6.4,6.5l-3.9-3.6L10,29.7l5.7,5.3L23.9,26.7
	z M23.9,39.2l-1.8-1.7L15.7,44l-3.9-3.6L10,42.2l5.7,5.3L23.9,39.2z"/>
</svg>
