<?xml version="1.0" encoding="utf-8"?>
<!-- Generator: Adobe Illustrator 25.2.1, SVG Export Plug-In . SVG Version: 6.00 Build 0)  -->
<svg version="1.1" id="Layer_1" xmlns="http://www.w3.org/2000/svg" xmlns:xlink="http://www.w3.org/1999/xlink" x="0px" y="0px"
	 viewBox="0 0 65 60" style="enable-background:new 0 0 65 60;" xml:space="preserve">
<style type="text/css">
	.st0{fill:#707070;}
</style>
<path id="Path_7" class="st0" d="M46.7,26.2c-4.7,0-8.6,3.8-8.6,8.5c0,4.7,3.8,8.6,8.5,8.6c4.7,0,8.6-3.8,8.6-8.5c0,0,0,0,0-0.1
	C55.2,30,51.4,26.2,46.7,26.2z M51.4,35.7h-3.8v3.8h-1.9v-3.8h-3.8v-1.9h3.8V30h1.9v3.8h3.8V35.7z M39.1,44.4
	c-2.1,2.1-4.3,4.2-6.6,6.5C20.4,38.8,9.8,29.7,9.8,20.9c0-7.6,5.8-11.8,11.9-11.8c4.5,0,8.6,2.3,10.8,6.2c2.2-3.9,6.4-6.2,10.8-6.2
	c6,0,11.8,4.1,11.8,11.8c0,1.5-0.3,2.9-0.8,4.3c-1-0.8-2.1-1.5-3.3-1.9c0.2-0.8,0.4-1.6,0.4-2.4c0-5.5-4.2-8-8.1-8
	c-6.1,0-9.4,6.6-10.8,9.5c-1.4-2.9-4.7-9.6-10.8-9.6c-4.4,0-8.1,2.9-8.1,8c0,6.5,9,14.9,18.9,24.7l4-3.9
	C37.2,42.7,38.1,43.6,39.1,44.4z"/>
</svg>
