<svg xmlns="http://www.w3.org/2000/svg" width="65" height="60" viewBox="0 0 65 60">
  <path id="Path_7" data-name="Path 7" d="M52.813,25.545A12.273,12.273,0,1,0,65,37.818,12.235,12.235,0,0,0,52.813,25.545Zm6.771,13.636H54.167v5.455H51.458V39.182H46.042V36.455h5.417V31h2.708v5.455h5.417ZM41.906,51.708c-3,2.962-6.161,6.052-9.406,9.292C15.085,43.6,0,30.6,0,17.887,0,6.965,8.39,1,17.011,1A17.648,17.648,0,0,1,32.5,9.858,17.669,17.669,0,0,1,48.008,1.027C56.612,1.027,65,6.948,65,17.887a18.587,18.587,0,0,1-1.146,6.145,17.479,17.479,0,0,0-4.791-2.765,12.373,12.373,0,0,0,.52-3.379c0-7.835-6-11.405-11.575-11.405-8.821,0-13.477,9.477-15.508,13.694-2.023-4.2-6.728-13.718-15.492-13.721-6.27,0-11.592,4.135-11.592,11.433C5.417,27.275,18.26,39.3,32.5,53.342l5.712-5.629A17.872,17.872,0,0,0,41.906,51.708Z" transform="translate(0 -1)" fill="#707070"/>
</svg>
